<svg xmlns="http://www.w3.org/2000/svg" xmlns:xlink="http://www.w3.org/1999/xlink" viewBox="0,0,256,256" width="150px" height="150px" fill-rule="nonzero"><g fill="#0f0f0f" fill-rule="nonzero" stroke="none" stroke-width="1" stroke-linecap="butt" stroke-linejoin="miter" stroke-miterlimit="10" stroke-dasharray="" stroke-dashoffset="0" font-family="none" font-weight="none" font-size="none" text-anchor="none" style="mix-blend-mode: normal"><g transform="scale(5.12,5.12)"><path d="M41.5,2c-3.03757,0 -5.5,2.46243 -5.5,5.5c0,3.03757 2.46243,5.5 5.5,5.5c3.03757,0 5.5,-2.46243 5.5,-5.5c0,-3.03757 -2.46243,-5.5 -5.5,-5.5zM24.1875,2.01367c-0.445,0.017 -0.8918,0.04589 -1.3418,0.08789c-1.288,0.121 -2.5715,0.34964 -3.8125,0.68164l0.51563,1.93359c1.134,-0.303 2.30542,-0.514 3.48242,-0.625c0.412,-0.038 0.82347,-0.06508 1.23047,-0.08008zM29.38867,2.41602l-0.38086,1.96484c1.561,0.302 3.08902,0.78459 4.54102,1.43359l0.81641,-1.82617c-1.592,-0.711 -3.26656,-1.24027 -4.97656,-1.57227zM14.17969,4.69727c-1.534,0.818 -2.97702,1.81494 -4.29102,2.96094l1.31445,1.50586c1.199,-1.047 2.51897,-1.95517 3.91797,-2.70117zM25,8c-9.374,0 -17,7.626 -17,17c0,9.374 7.626,17 17,17c9.374,0 17,-7.626 17,-17c0,-9.374 -7.626,-17 -17,-17zM6.37305,11.50781c-1.023,1.413 -1.88645,2.94002 -2.56445,4.54102l1.8418,0.7793c0.619,-1.462 1.4078,-2.85648 2.3418,-4.14648zM30,14c2.761,0 5,2.239 5,5c0,2.761 -2.239,5 -5,5c-2.761,0 -5,-2.239 -5,-5c0,-2.761 2.239,-5 5,-5zM45.51172,14.57813l-1.7832,0.90625c0.721,1.417 1.2772,2.91794 1.6582,4.46094l1.94141,-0.47656c-0.417,-1.691 -1.02741,-3.33762 -1.81641,-4.89062zM2.33594,21.05469c-0.224,1.289 -0.33789,2.60792 -0.33789,3.91992c0,0.426 0.01116,0.85416 0.03516,1.28516l1.99805,-0.11133c-0.022,-0.393 -0.0332,-0.78483 -0.0332,-1.17383c0,-1.198 0.10459,-2.40213 0.30859,-3.57812zM47.89844,22.84375l-1.99023,0.1875c0.063,0.66 0.0957,1.33114 0.0957,1.99414c0,0.922 -0.06259,1.85353 -0.18359,2.76953l1.98242,0.26367c0.133,-1.002 0.20017,-2.0232 0.20117,-3.0332c0,-0.725 -0.03747,-1.45964 -0.10547,-2.18164zM14,24h2v8h4v2h-6zM32.82227,25.28516c1.93,0 3.17773,1.25622 3.17773,3.19922v5.51563h-2v-0.16602c-0.818,0.283 -1.6423,0.37305 -2.0293,0.37305c-1.357,0 -2.76367,-0.96503 -2.76367,-2.58203c0,-1.984 2.00989,-2.53539 3.33789,-2.90039c0.527,-0.145 1.15292,-0.32458 1.41992,-0.51758c-0.08,-0.627 -0.42258,-0.92187 -1.14258,-0.92187c-0.412,0 -1.26172,0.1685 -1.26172,0.6875h-2c0,-1.764 1.64072,-2.6875 3.26172,-2.6875zM21,26h2v5.49219c0,0.498 0.40434,0.90234 0.90234,0.90234h0.25c1.019,0 1.84766,-0.8277 1.84766,-1.8457v-4.54883h2v4.54883v3.45117h-2v-0.09766c-0.551,0.305 -1.17466,0.49219 -1.84766,0.49219h-0.25c-1.601,0 -2.90234,-1.30234 -2.90234,-2.90234zM34,30.37109c-0.304,0.102 -0.61378,0.1943 -0.92578,0.2793c-1.264,0.349 -1.86719,0.58261 -1.86719,0.97461c0,0.567 0.75567,0.58203 0.76367,0.58203c0.644,0 1.6133,-0.26027 2.0293,-0.57227zM4.82617,30.84766l-1.92188,0.55273c0.482,1.672 1.15781,3.29345 2.00781,4.81445l1.74609,-0.97461c-0.776,-1.389 -1.39203,-2.86658 -1.83203,-4.39258zM44.65625,32.41211c-0.562,1.486 -1.29569,2.91137 -2.17969,4.23438l1.66406,1.11133c0.967,-1.45 1.77072,-3.01167 2.38672,-4.63867zM9.43555,39.10352l-1.48047,1.34375c1.17,1.289 2.48897,2.44545 3.91797,3.43945l1.14258,-1.64062c-1.306,-0.91 -2.51108,-1.96558 -3.58008,-3.14258zM39.40234,40.2832c-1.159,1.093 -2.43959,2.05447 -3.80859,2.85547l1.00977,1.72656c1.5,-0.877 2.90288,-1.92895 4.17188,-3.12695zM17.20703,44.50586l-0.74219,1.85547c1.618,0.649 3.30925,1.111 5.03125,1.375l0.30469,-1.97461c-1.571,-0.241 -3.11675,-0.66386 -4.59375,-1.25586zM31.23828,45.05664c-1.379,0.427 -2.81744,0.71356 -4.27344,0.85156l-0.41406,0.03516l0.16406,1.99414l0.43945,-0.03906c1.592,-0.151 3.16478,-0.46364 4.67578,-0.93164z"></path></g></g></svg>